<?xml version="1.0" encoding="UTF-8" standalone="no"?>
<!-- Created with Inkscape (http://www.inkscape.org/) -->

<svg
   width="64.183868mm"
   height="63.841358mm"
   viewBox="0 0 64.183868 63.841358"
   version="1.1"
   id="svg1"
   xml:space="preserve"
   xmlns:inkscape="http://www.inkscape.org/namespaces/inkscape"
   xmlns:sodipodi="http://sodipodi.sourceforge.net/DTD/sodipodi-0.dtd"
   xmlns="http://www.w3.org/2000/svg"
   xmlns:svg="http://www.w3.org/2000/svg"><sodipodi:namedview
     id="namedview1"
     pagecolor="#ffffff"
     bordercolor="#000000"
     borderopacity="0.25"
     inkscape:showpageshadow="2"
     inkscape:pageopacity="0.0"
     inkscape:pagecheckerboard="0"
     inkscape:deskcolor="#d1d1d1"
     inkscape:document-units="mm"><inkscape:page
       x="0"
       y="0"
       width="64.183868"
       height="63.841358"
       id="page2"
       margin="0"
       bleed="0" /></sodipodi:namedview><defs
     id="defs1" /><g
     inkscape:label="Layer 1"
     inkscape:groupmode="layer"
     id="layer1"
     transform="translate(-583.49592,-322.4532)"><g
       id="g1"><path
         d="m 606.06753,323.51053 c -13.25579,4.23947 -21.73483,15.16668 -22.51099,29.0196 -0.53861,9.49408 2.50781,17.43572 9.31484,24.24265 9.91207,9.91217 24.06351,12.3006 36.78202,6.15025 9.6732,-4.59763 15.88319,-13.31544 17.67449,-24.78003 0.53657,-3.5827 0.47673,-4.35886 -0.29821,-5.61287 -1.13463,-1.73155 -3.34372,-1.97042 -4.65747,-0.47673 -0.47674,0.59643 -1.07498,2.74669 -1.25391,4.77676 -0.47673,4.4187 -1.73166,7.76262 -4.47834,11.94224 -2.26894,3.52295 -3.22444,4.06044 -2.74669,1.43294 0.53658,-2.62751 -0.65728,-4.35896 -2.92582,-4.12009 -1.67191,0.17852 -1.91078,0.47674 -2.56755,3.04521 -1.31355,5.13511 -5.85174,9.31494 -11.10624,10.27023 -2.92582,0.53658 -7.94165,-0.9555 -10.62859,-3.16459 -2.32879,-1.97053 -4.47834,-5.85174 -4.95609,-9.07617 l -0.29821,-2.14956 6.32928,0.0609 c 5.61286,0 6.74748,-0.17852 9.37478,-1.49278 5.55302,-2.74668 10.27023,-9.01652 10.86737,-14.56954 0.35805,-2.86617 -0.65729,-4.17983 -2.92592,-3.82157 -1.07498,0.11665 -1.43284,0.71713 -1.7913,2.68705 -0.77697,4.53798 -4.11998,9.07617 -8.35945,11.28537 -3.52294,1.85103 -11.82285,1.61216 -11.82285,-0.23837 0,-0.29821 1.37319,-1.85114 2.98556,-3.46321 2.98556,-2.86607 3.64233,-4.71711 2.26894,-6.0905 -1.55242,-1.55253 -3.52285,-0.77698 -7.10554,2.86617 l -3.46321,3.52285 -1.2539,-1.55242 c -3.04531,-3.94096 -3.64244,-10.98696 -1.19427,-15.70397 1.91068,-3.70218 8.65807,-8.24016 14.27093,-9.49407 1.43283,-0.29821 2.86607,-0.83682 3.16469,-1.13462 1.01544,-1.01534 0.71712,-3.82147 -0.47673,-4.71711 -1.3733,-1.01534 -2.2094,-0.9555 -6.21,0.35805 z m -14.45016,31.94542 c 0.77697,1.43284 2.14976,3.34382 3.10505,4.23947 1.37319,1.31355 1.61216,1.97053 1.37319,3.58269 -0.17852,1.07508 0,3.34392 0.35806,5.07548 0.35805,1.73165 0.53657,3.28407 0.4179,3.40356 -0.59642,0.65627 -4.59763,-5.73225 -5.67251,-9.07617 -1.37319,-4.12008 -2.2093,-9.85233 -1.43283,-9.85233 0.23837,0 1.13462,1.19427 1.85104,2.6273 z"
         id="path1-2"
         style="fill:#fd560e;fill-opacity:1;stroke:none;stroke-width:0.0597111"
         inkscape:export-filename="coracle.svg"
         inkscape:export-xdpi="20"
         inkscape:export-ydpi="20" /></g></g></svg>
